<svg id="icon" height="512" viewBox="0 0 340 340" width="512" xmlns="http://www.w3.org/2000/svg"><path d="m169.522 300.467c6.132-71.921 9.628-139.642 0-186.438 0 0-75.543-38.013-153.33-2.724a9.812 9.812 0 0 0 -5.714 8.95v180.212z" fill="#a5b4db"/><path d="m169.522 300.467c4.806-78.155 9.409-159.968 16.7-193.059 26.728-9.034 81.8-21.395 137.584 3.9a9.812 9.812 0 0 1 5.715 8.95v180.209z" fill="#f5fbff"/><path d="m186.223 107.409a147.159 147.159 0 0 0 -16.7 6.621v186.438h16.7z" fill="#a5b4db"/><path d="m160.691 296.658c-22.8-8.928-86.357-28.133-150.213 3.81v29.532c72.871-20.688 129.92-8.668 150.624-2.724a30.683 30.683 0 0 0 16.858.026c20.877-5.935 78.585-18.02 151.562 2.7v-29.534c-63.934-31.982-128.178-12.691-151.154-3.777a24.322 24.322 0 0 1 -17.677-.033z" fill="#626da0"/><path d="m158.4 285.165c-15.579-18.269-48.416-47.347-104.038-55.23a11.119 11.119 0 0 1 -9.608-10.985v-167.178a8.263 8.263 0 0 1 9.206-8.214c86 10.117 115.561 70.471 115.561 70.471v167.014a6.321 6.321 0 0 1 -11.121 4.122z" fill="#f5fbff"/><g fill="#a5b4db"><path d="m80.992 182.783a83.521 83.521 0 0 1 22.8 11.031v-27.148a81.236 81.236 0 0 0 -22.8-11.162z"/><path d="m80.219 83.848c1.088.246 3.838.91 4.134.91a3.5 3.5 0 0 0 .89-6.885q-1.726-.455-3.478-.852a3.5 3.5 0 0 0 -1.546 6.827z"/><path d="m104.236 92.506c22.528 9.993 38.595 27.353 38.754 27.527a4.126 4.126 0 0 0 4.945.217 3.41 3.41 0 0 0 .219-4.942c-.689-.754-17.169-18.594-41.079-29.2a3.5 3.5 0 0 0 -2.839 6.4z"/><path d="m80.219 109.7c35.23 7.981 62.544 35.987 62.833 36.252a3.445 3.445 0 0 0 4.948.089 3.6 3.6 0 0 0 .092-4.947c-1.166-1.211-29.009-29.767-66.326-38.221a3.5 3.5 0 1 0 -1.547 6.827z"/><path d="m80.219 135.557c35.23 7.981 62.561 35.97 62.833 36.252a3.989 3.989 0 0 0 4.948.091 3.419 3.419 0 0 0 .092-4.947c-1.166-1.211-29.009-29.767-66.326-38.221a3.5 3.5 0 1 0 -1.547 6.827z"/><path d="m122.73 172.564a3.5 3.5 0 0 0 -3.4 6.119c12.46 6.928 23.568 18.813 23.678 18.932.69.742 3.26 1.675 4.946.184a3.47 3.47 0 0 0 .186-4.945c-.484-.52-11.956-12.808-25.41-20.29z"/><path d="m147.952 223.654a3.488 3.488 0 0 0 .186-4.945c-.482-.52-11.954-12.809-25.409-20.29a3.5 3.5 0 0 0 -3.4 6.119c12.46 6.928 23.568 18.813 23.678 18.932.693.742 3.308 1.675 4.945.184z"/></g><path d="m295.555 31.087a32.289 32.289 0 0 0 -10.08.456 38.456 38.456 0 0 0 -68.975-.193 31.879 31.879 0 0 0 -37.3 31.437c0 14.534 7.023 28.26 22.374 31.393a13.4 13.4 0 0 1 10.905 13.045v39.818a159.4 159.4 0 0 0 76.907 0v-39.7a13.329 13.329 0 0 1 10.314-12.918c13.873-3.347 25.041-18.779 24.067-33.769a31.988 31.988 0 0 0 -28.212-29.569z" fill="#c0daff"/><path d="m304.809 202.6a3 3 0 0 0 -4.233-.273l-13.2 11.516a15.3 15.3 0 0 1 -10.7 3.806 11.638 11.638 0 0 1 -4.38-2.079l22.46-19.154a3 3 0 0 0 -3.89-4.568l-22.9 19.525a11.047 11.047 0 0 1 -1.316-7.095 15.35 15.35 0 0 1 3.849-5.416l14.38-12.83a3 3 0 0 0 -4.017-4.456l-14.372 12.824a21.373 21.373 0 0 0 -6.909 13.347l-.216 1.83a16.481 16.481 0 0 1 -4.642 9.295l7.518 7.2 1.261-.747a15.387 15.387 0 0 1 10.3-1.939 21.288 21.288 0 0 0 17.544-5.039l13.2-11.516a3 3 0 0 0 .263-4.231z" fill="#525263"/><path d="m211.132 184.746 88.958 68.016a5.358 5.358 0 0 1 1.17 7.278 5.357 5.357 0 0 1 -7.593 1.3l-39.915-29.282a17.046 17.046 0 0 0 -9.663-3.265c-12.318-.316-42.392-4.908-35.941-42.873a1.876 1.876 0 0 1 2.984-1.174z" fill="#525263"/><path d="m274.362 147.043v-24.654a3.5 3.5 0 0 0 -7 0v24.654h-12.436v-24.654a3.5 3.5 0 0 0 -7 0v24.654h-12.437v-24.654a3.5 3.5 0 1 0 -7 0v24.654h-16.006v6.04a11.75 11.75 0 0 0 11.75 11.75h53.407a11.75 11.75 0 0 0 11.75-11.75v-6.04z" fill="#758fdf"/><path d="m239.188 235.283a7.318 7.318 0 0 0 -7.995.585l-21.837 16.894a5.358 5.358 0 0 0 -1.17 7.278 5.178 5.178 0 0 0 7.593 1.3l23.936-17.712a4.964 4.964 0 0 0 -.527-8.343z" fill="#525263"/></svg>