<svg fill="none" height="24" viewBox="0 0 24 24" width="24" xmlns="http://www.w3.org/2000/svg"><rect fill="#fff" height="13" rx="1.5" stroke="#cce3f4" width="19" x="2.5" y="5.5"/><path d="m10.0278 15h-1.10055l-.4375-1.1382h-2.00293l-.41358 1.1382h-1.07324l1.95166-5.01074h1.06982zm-1.86276-1.9824-.69043-1.8594-.67676 1.8594zm3.25376-.5401-.8716-.1572c.098-.3509.2666-.6107.5059-.7793.2392-.1686.5947-.2529 1.0664-.2529.4284 0 .7474.0513.957.1538.2097.1003.3566.229.4409.3862.0866.155.1299.4409.1299.8579l-.0102 1.1211c0 .319.0148.5549.0444.7075.0319.1504.09.3122.1743.4854h-.9502c-.025-.0638-.0558-.1584-.0923-.2837-.0159-.057-.0273-.0946-.0341-.1128-.1641.1595-.3396.2791-.5264.3589-.1869.0798-.3862.1196-.5982.1196-.3736 0-.6687-.1014-.8852-.3042-.2142-.2028-.3213-.4591-.3213-.769 0-.2051.049-.3874.147-.5469.098-.1618.2347-.2848.4101-.3691.1778-.0866.433-.1618.7657-.2256.4489-.0843.7599-.1629.9331-.2359v-.0957c0-.1845-.0456-.3155-.1368-.393-.0911-.0798-.2631-.1197-.5161-.1197-.1709 0-.3042.0342-.3999.1026-.0957.0661-.1731.1834-.2324.352zm1.2852.7793c-.1231.0411-.3179.09-.5845.147s-.4409.1128-.523.1675c-.1253.0889-.1879.2016-.1879.3384 0 .1344.0501.2506.1503.3486.1003.098.2279.147.3829.147.1731 0 .3383-.057.4956-.1709.1162-.0866.1925-.1926.229-.3179.025-.082.0376-.2381.0376-.4683z" fill="#303c45"/><path d="m17.5 11c-.4528-.6027-1.1718-.9941-1.9824-.9997l-.0077-.0002-.0099-.0001c-.2761 0-.5.2238-.5.5s.2239.5.5.5c.8284 0 1.5.6718 1.5 1.5002v6c0 .824-.6642 1.4927-1.4864 1.5l-.0136-.0002c-.2761 0-.5.2238-.5.5s.2239.5.5.5c.8178 0 1.5439-.3924 2-.9995.4561.6071 1.1822.9997 2 .9997.2761 0 .5-.224.5-.5002s-.2239-.5-.5-.5c-.0045 0-.0091.0001-.0136.0002-.8222-.0073-1.4864-.676-1.4864-1.5v-6c0-.8284.6716-1.5 1.5-1.5.2761 0 .5-.224.5-.5002s-.2239-.5-.5-.5l-.0099.0001-.0077.0002c-.8106.0056-1.5296.397-1.9824.9997z" fill="#40505c"/></svg>